<?xml version="1.0" encoding="utf-8"?>
<!-- Generator: Adobe Illustrator 24.1.3, SVG Export Plug-In . SVG Version: 6.00 Build 0)  -->
<svg version="1.1" id="Layer_2" xmlns="http://www.w3.org/2000/svg" xmlns:xlink="http://www.w3.org/1999/xlink" x="0px" y="0px"
	 viewBox="0 0 100 100" style="enable-background:new 0 0 100 100;" xml:space="preserve">
<g>
	<path d="M16.04,38.45v13.4h21l8.79-13.4H16.04z M16.04,7.34v13.4h41.42l1.95-2.97V7.34H16.04z M10.95,7.34v73.8h6.86l7.04-10.72
		V7.34H10.95z"/>
	<path d="M74.59,76.87c-1.13,1.73-2.49,3.03-4.11,3.94c-1.62,0.89-3.46,1.34-5.48,1.34c-2.62,0-4.83-0.54-6.65-1.6
		c-1.84-1.06-3.23-2.62-4.2-4.63c-0.95-2.04-1.45-4.48-1.45-7.36V48.31c0-2.88,0.5-5.35,1.45-7.38c0.97-2.06,2.36-3.62,4.2-4.68
		c1.82-1.06,4.03-1.6,6.65-1.6c1.99,0,3.79,0.45,5.39,1.36c1.6,0.93,2.99,2.25,4.11,3.96c1.13,1.73,1.97,3.81,2.51,6.26h14.42
		c-0.91-5.39-2.58-9.98-4.96-13.79s-5.39-6.71-9.05-8.7c-3.66-1.99-7.8-2.99-12.43-2.99c-1.97,0-3.85,0.13-5.63,0.41L38.3,53.24
		v15.31c0,5.82,1.04,10.78,3.14,14.9c2.1,4.11,5.15,7.23,9.14,9.38c3.98,2.17,8.79,3.23,14.42,3.23c4.63,0,8.77-1,12.41-2.99
		c3.64-1.99,6.65-4.89,9.03-8.7c2.38-3.81,4.05-8.4,5-13.77H77.01C76.52,73.06,75.69,75.16,74.59,76.87z"/>
</g>
</svg>
